<?xml version="1.0" standalone="no"?>
<!DOCTYPE svg PUBLIC "-//W3C//DTD SVG 20010904//EN"
 "http://www.w3.org/TR/2001/REC-SVG-20010904/DTD/svg10.dtd">
<svg version="1.0" xmlns="http://www.w3.org/2000/svg"
 width="344.000000pt" height="344.000000pt" viewBox="0 0 344.000000 344.000000"
 preserveAspectRatio="xMidYMid meet">
<metadata>
Created by potrace 1.14, written by Peter Selinger 2001-2017
</metadata>
<g transform="translate(0.000000,344.000000) scale(0.100000,-0.100000)"
fill="#000000" stroke="none">
<path d="M199 3428 c-53 -18 -53 -19 -55 -476 -1 -378 1 -424 15 -433 14 -9
14 -10 0 -6 -14 5 -15 -42 -15 -469 1 -410 3 -476 16 -485 13 -10 13 -10 -1
-6 -14 5 -15 -42 -15 -469 1 -410 3 -476 16 -485 13 -10 13 -10 -1 -6 -14 5
-16 -22 -14 -261 1 -147 4 -274 8 -282 16 -34 50 -45 149 -45 53 0 94 3 92 6
-2 4 3 9 11 12 9 4 12 1 8 -9 -3 -7 0 -14 6 -14 6 0 11 6 11 13 0 8 3 8 8 1 9
-13 82 -15 82 -2 0 5 -4 7 -9 3 -5 -3 -12 -2 -15 3 -2 4 6 8 19 8 15 0 21 -5
18 -13 -7 -19 7 -16 23 5 10 12 13 13 9 2 -4 -12 3 -15 34 -15 22 0 37 3 35 6
-2 4 3 9 11 12 9 4 12 1 8 -9 -3 -7 0 -14 6 -14 6 0 11 6 11 13 0 9 2 9 9 -1
10 -17 41 -12 59 8 12 13 13 13 8 -2 -6 -20 10 -25 17 -5 4 10 6 10 6 0 1 -19
22 -16 37 5 13 16 14 16 8 0 -3 -10 -1 -18 5 -18 6 0 11 6 11 13 0 9 2 9 9 -1
10 -17 41 -12 59 8 12 13 13 13 8 -2 -3 -10 -1 -18 4 -18 6 0 10 6 10 13 0 9
2 9 8 1 7 -13 274 -15 266 -3 -2 4 3 9 11 12 9 4 12 1 8 -9 -3 -7 0 -14 6 -14
6 0 11 6 11 13 0 8 3 8 8 1 9 -13 82 -15 82 -2 0 5 -4 7 -9 3 -5 -3 -12 -2
-15 3 -2 4 6 8 19 8 15 0 21 -5 18 -13 -7 -19 7 -16 23 5 11 13 13 14 9 1 -5
-12 1 -15 23 -14 15 1 34 5 42 10 8 5 11 4 7 -2 -4 -7 23 -10 78 -10 47 1 85
5 85 10 0 4 -4 6 -9 2 -5 -3 -12 -2 -15 3 -2 4 6 8 19 8 15 0 21 -5 18 -13 -3
-7 0 -13 6 -13 6 0 11 6 11 13 0 9 2 9 9 -1 10 -17 41 -12 59 8 12 13 13 13 8
-3 -6 -19 10 -24 17 -4 4 10 6 10 6 0 1 -19 22 -16 37 5 13 16 14 16 8 -1 -3
-9 -1 -17 5 -17 6 0 11 6 11 13 0 9 2 9 9 -1 10 -17 41 -12 59 8 12 13 13 13
8 -2 -3 -10 -1 -18 4 -18 6 0 10 6 10 13 0 9 2 9 8 1 4 -7 29 -11 59 -10 28 0
49 4 47 7 -2 4 3 9 11 12 9 4 12 1 8 -9 -3 -7 0 -14 6 -14 6 0 11 6 11 13 0 9
2 9 9 -1 10 -17 41 -12 59 8 12 13 13 13 8 -2 -3 -10 -1 -18 4 -18 6 0 10 6
10 13 0 8 3 9 8 1 7 -12 193 -14 186 -3 -2 4 3 9 11 12 9 4 12 1 8 -9 -3 -7 0
-14 6 -14 6 0 11 6 11 13 0 8 3 9 8 1 8 -11 283 -14 276 -3 -2 4 3 9 11 12 9
4 12 1 8 -9 -3 -7 0 -14 6 -14 6 0 11 6 11 13 0 9 2 9 9 -1 10 -17 41 -12 59
8 12 13 13 13 8 -2 -3 -10 -1 -18 4 -18 6 0 10 6 10 13 0 8 3 9 8 1 7 -12 193
-14 186 -3 -2 4 3 9 11 12 9 4 12 1 8 -9 -3 -7 0 -14 6 -14 6 0 11 6 11 13 0
8 3 9 8 1 4 -7 48 -10 122 -9 139 3 125 1 149 26 30 32 35 68 14 93 -13 14
-13 17 -2 8 14 -10 16 -7 17 23 1 23 -4 38 -16 45 -14 9 -14 11 -1 7 23 -7 23
51 1 78 -14 16 -14 17 -1 7 14 -10 16 -7 17 23 1 23 -4 38 -16 45 -14 10 -14
11 -1 7 14 -5 16 5 15 66 0 54 -5 74 -16 79 -13 6 -13 7 0 7 9 1 16 10 17 22
2 18 0 19 -15 7 -16 -12 -16 -11 -2 6 22 28 23 184 1 211 -14 17 -14 18 0 7
14 -10 16 -7 17 23 1 23 -4 38 -16 45 -13 9 -14 10 -1 7 14 -5 16 16 15 187
-1 155 -4 197 -16 212 -14 17 -13 18 1 7 14 -11 16 -8 17 22 1 23 -4 38 -16
45 -14 10 -14 11 -1 7 14 -5 16 5 15 66 0 54 -5 74 -16 79 -13 6 -13 7 0 7 9
1 16 10 17 22 2 18 0 19 -15 7 -16 -12 -16 -11 -2 6 22 28 23 184 1 211 -14
17 -14 18 0 7 14 -10 16 -7 17 23 1 23 -4 38 -16 45 -13 9 -13 10 -1 7 14 -5
15 31 15 347 -1 298 -3 356 -16 372 -14 17 -13 18 1 7 14 -11 16 -8 17 22 1
23 -4 38 -16 45 -14 10 -14 11 -1 7 14 -5 16 5 15 66 0 54 -5 74 -16 79 -13 6
-13 7 0 7 9 1 16 10 17 22 2 18 0 19 -15 7 -16 -12 -16 -11 -2 6 22 28 23 184
1 211 -14 17 -14 18 0 7 14 -10 16 -7 17 23 1 23 -4 38 -16 45 -14 10 -14 11
-1 7 14 -5 16 5 15 66 0 54 -5 74 -16 79 -13 6 -13 7 0 7 9 1 16 10 17 22 2
18 0 19 -15 7 -15 -11 -14 -10 1 8 17 21 18 63 2 114 -5 17 -9 19 -21 9 -12
-10 -13 -9 -9 4 4 8 1 18 -5 22 -20 12 -130 15 -130 4 0 -6 4 -8 9 -4 5 3 12
2 15 -3 2 -4 -6 -8 -19 -8 -15 0 -21 5 -18 13 3 7 0 13 -6 13 -6 0 -11 -6 -11
-12 0 -9 -3 -9 -8 -2 -9 13 -82 15 -82 2 0 -5 4 -7 9 -3 5 3 12 2 15 -3 2 -4
-6 -8 -19 -8 -15 0 -21 5 -18 13 3 7 0 13 -6 13 -6 0 -11 -6 -11 -12 0 -9 -3
-9 -8 -2 -9 13 -82 15 -82 2 0 -5 4 -7 9 -3 5 3 12 2 15 -3 2 -4 -6 -8 -19 -8
-15 0 -21 5 -18 13 3 7 0 13 -6 13 -6 0 -11 -6 -11 -12 0 -9 -3 -9 -8 -2 -9
13 -82 15 -82 2 0 -5 4 -7 9 -3 5 3 12 2 15 -3 2 -4 -6 -8 -19 -8 -15 0 -21 5
-18 13 3 7 0 13 -6 13 -6 0 -11 -6 -11 -12 0 -9 -3 -9 -8 -2 -9 13 -82 15 -82
2 0 -5 4 -7 9 -3 5 3 12 2 15 -3 2 -4 -6 -8 -19 -8 -15 0 -21 5 -18 13 3 7 0
13 -6 13 -6 0 -11 -6 -11 -12 0 -9 -3 -9 -8 -2 -9 13 -82 15 -82 2 0 -5 4 -7
9 -3 5 3 12 2 15 -3 2 -4 -6 -8 -19 -8 -15 0 -21 5 -18 13 3 7 0 13 -6 13 -6
0 -11 -6 -11 -12 0 -9 -3 -9 -8 -2 -9 13 -82 15 -82 2 0 -5 4 -7 9 -3 5 3 12
2 15 -3 2 -4 -6 -8 -19 -8 -15 0 -21 5 -18 13 3 7 0 13 -6 13 -6 0 -11 -6 -11
-12 0 -9 -3 -9 -8 -2 -9 13 -82 15 -82 2 0 -5 4 -7 9 -3 5 3 12 2 15 -3 2 -4
-6 -8 -19 -8 -15 0 -21 5 -18 13 3 7 0 13 -6 13 -6 0 -11 -6 -11 -12 0 -9 -3
-9 -8 -2 -9 13 -82 15 -82 2 0 -5 4 -7 9 -3 5 3 12 2 15 -3 2 -4 -6 -8 -19 -8
-15 0 -21 5 -18 13 3 7 0 13 -6 13 -6 0 -11 -6 -11 -12 0 -9 -3 -9 -8 -2 -9
13 -82 15 -82 2 0 -5 4 -7 9 -3 5 3 12 2 15 -3 2 -4 -6 -8 -19 -8 -15 0 -21 5
-18 13 3 7 0 13 -6 13 -6 0 -11 -6 -11 -12 0 -9 -3 -9 -8 -2 -9 13 -82 15 -82
2 0 -5 4 -7 9 -3 5 3 12 2 15 -3 2 -4 -6 -8 -19 -8 -15 0 -21 5 -18 13 3 7 0
13 -6 13 -6 0 -11 -6 -11 -12 0 -9 -3 -9 -8 -2 -9 13 -82 15 -82 2 0 -5 4 -7
9 -3 5 3 12 2 15 -3 2 -4 -6 -8 -19 -8 -15 0 -21 5 -18 13 3 7 0 13 -6 13 -6
0 -11 -6 -11 -12 0 -9 -3 -9 -8 -2 -9 13 -82 15 -82 2 0 -5 4 -7 9 -3 5 3 12
2 15 -3 2 -4 -6 -8 -19 -8 -15 0 -21 5 -18 13 3 7 0 13 -6 13 -6 0 -11 -6 -11
-12 0 -9 -3 -9 -8 -2 -9 13 -82 15 -82 2 0 -5 4 -7 9 -3 5 3 12 2 15 -3 2 -4
-6 -8 -19 -8 -15 0 -21 5 -18 13 3 7 0 13 -6 13 -6 0 -11 -6 -11 -12 0 -9 -3
-9 -8 -2 -9 13 -82 15 -82 2 0 -5 4 -7 9 -3 5 3 12 2 15 -3 2 -4 -6 -8 -19 -8
-15 0 -21 5 -18 13 3 7 0 13 -6 13 -6 0 -11 -6 -11 -12 0 -9 -3 -9 -8 -2 -9
13 -82 15 -82 2 0 -5 4 -7 9 -3 5 3 12 2 15 -3 2 -4 -6 -8 -19 -8 -15 0 -21 5
-18 13 3 7 0 13 -6 13 -6 0 -11 -6 -11 -12 0 -9 -3 -9 -8 -2 -9 13 -82 15 -82
2 0 -5 4 -7 9 -3 5 3 12 2 15 -3 2 -4 -6 -8 -19 -8 -15 0 -21 5 -18 13 3 7 0
13 -6 13 -6 0 -11 -6 -11 -12 0 -9 -3 -9 -8 -2 -9 13 -82 15 -82 2 0 -5 4 -7
9 -3 5 3 12 2 15 -3 2 -4 -6 -8 -19 -8 -15 0 -21 5 -18 13 3 7 0 13 -6 13 -6
0 -11 -6 -11 -12 0 -9 -3 -9 -8 -2 -9 13 -82 15 -82 2 0 -5 4 -7 9 -3 5 3 12
2 15 -3 2 -4 -6 -8 -19 -8 -15 0 -21 5 -18 13 3 7 0 13 -6 13 -6 0 -11 -6 -11
-12 0 -9 -3 -9 -8 -2 -9 13 -82 15 -82 2 0 -5 4 -7 9 -3 5 3 12 2 15 -3 2 -4
-6 -8 -19 -8 -15 0 -21 5 -18 13 3 7 0 13 -6 13 -6 0 -11 -6 -11 -12 0 -9 -3
-9 -8 -2 -9 13 -82 15 -82 2 0 -5 4 -7 9 -3 5 3 12 2 15 -3 2 -4 -6 -8 -19 -8
-15 0 -21 5 -18 13 3 7 0 13 -6 13 -6 0 -11 -6 -11 -12 0 -9 -3 -9 -8 -2 -9
13 -82 15 -82 2 0 -5 4 -7 9 -3 5 3 12 2 15 -3 2 -4 -6 -8 -19 -8 -15 0 -21 5
-18 13 3 7 0 13 -6 13 -6 0 -11 -6 -11 -12 0 -9 -3 -9 -8 -2 -9 13 -82 15 -82
2 0 -5 4 -7 9 -3 5 3 12 2 15 -3 2 -4 -6 -8 -19 -8 -15 0 -21 5 -18 13 3 7 0
13 -6 13 -6 0 -11 -6 -11 -12 0 -9 -3 -9 -8 -2 -9 13 -82 15 -82 2 0 -5 4 -7
9 -3 5 3 12 2 15 -3 2 -4 -6 -8 -19 -8 -15 0 -21 5 -18 13 3 7 0 13 -6 13 -6
0 -11 -6 -11 -12 0 -9 -3 -10 -8 -2 -8 13 -87 14 -123 2z m65 -6 c3 -5 -1 -9
-9 -9 -8 0 -12 4 -9 9 3 4 7 8 9 8 2 0 6 -4 9 -8z m46 -2 c0 -5 -2 -10 -4 -10
-3 0 -8 5 -11 10 -3 6 -1 10 4 10 6 0 11 -4 11 -10z m120 0 c0 -5 -2 -10 -4
-10 -3 0 -8 5 -11 10 -3 6 -1 10 4 10 6 0 11 -4 11 -10z m120 0 c0 -5 -2 -10
-4 -10 -3 0 -8 5 -11 10 -3 6 -1 10 4 10 6 0 11 -4 11 -10z m120 0 c0 -5 -2
-10 -4 -10 -3 0 -8 5 -11 10 -3 6 -1 10 4 10 6 0 11 -4 11 -10z m120 0 c0 -5
-2 -10 -4 -10 -3 0 -8 5 -11 10 -3 6 -1 10 4 10 6 0 11 -4 11 -10z m120 0 c0
-5 -2 -10 -4 -10 -3 0 -8 5 -11 10 -3 6 -1 10 4 10 6 0 11 -4 11 -10z m120 0
c0 -5 -2 -10 -4 -10 -3 0 -8 5 -11 10 -3 6 -1 10 4 10 6 0 11 -4 11 -10z m120
0 c0 -5 -2 -10 -4 -10 -3 0 -8 5 -11 10 -3 6 -1 10 4 10 6 0 11 -4 11 -10z
m120 0 c0 -5 -2 -10 -4 -10 -3 0 -8 5 -11 10 -3 6 -1 10 4 10 6 0 11 -4 11
-10z m120 0 c0 -5 -2 -10 -4 -10 -3 0 -8 5 -11 10 -3 6 -1 10 4 10 6 0 11 -4
11 -10z m120 0 c0 -5 -2 -10 -4 -10 -3 0 -8 5 -11 10 -3 6 -1 10 4 10 6 0 11
-4 11 -10z m120 0 c0 -5 -2 -10 -4 -10 -3 0 -8 5 -11 10 -3 6 -1 10 4 10 6 0
11 -4 11 -10z m120 0 c0 -5 -2 -10 -4 -10 -3 0 -8 5 -11 10 -3 6 -1 10 4 10 6
0 11 -4 11 -10z m120 0 c0 -5 -2 -10 -4 -10 -3 0 -8 5 -11 10 -3 6 -1 10 4 10
6 0 11 -4 11 -10z m120 0 c0 -5 -2 -10 -4 -10 -3 0 -8 5 -11 10 -3 6 -1 10 4
10 6 0 11 -4 11 -10z m120 0 c0 -5 -2 -10 -4 -10 -3 0 -8 5 -11 10 -3 6 -1 10
4 10 6 0 11 -4 11 -10z m120 0 c0 -5 -2 -10 -4 -10 -3 0 -8 5 -11 10 -3 6 -1
10 4 10 6 0 11 -4 11 -10z m120 0 c0 -5 -2 -10 -4 -10 -3 0 -8 5 -11 10 -3 6
-1 10 4 10 6 0 11 -4 11 -10z m120 0 c0 -5 -2 -10 -4 -10 -3 0 -8 5 -11 10 -3
6 -1 10 4 10 6 0 11 -4 11 -10z m120 0 c0 -5 -2 -10 -4 -10 -3 0 -8 5 -11 10
-3 6 -1 10 4 10 6 0 11 -4 11 -10z m120 0 c0 -5 -2 -10 -4 -10 -3 0 -8 5 -11
10 -3 6 -1 10 4 10 6 0 11 -4 11 -10z m120 0 c0 -5 -2 -10 -4 -10 -3 0 -8 5
-11 10 -3 6 -1 10 4 10 6 0 11 -4 11 -10z m120 0 c0 -5 -2 -10 -4 -10 -3 0 -8
5 -11 10 -3 6 -1 10 4 10 6 0 11 -4 11 -10z m120 0 c0 -5 -2 -10 -4 -10 -3 0
-8 5 -11 10 -3 6 -1 10 4 10 6 0 11 -4 11 -10z m120 0 c0 -5 -2 -10 -4 -10 -3
0 -8 5 -11 10 -3 6 -1 10 4 10 6 0 11 -4 11 -10z m-2980 -14 c0 -2 -7 -6 -15
-10 -8 -3 -15 -1 -15 4 0 6 7 10 15 10 8 0 15 -2 15 -4z m3074 -106 c-6 -6
-10 -3 -10 10 0 13 4 16 10 10 7 -7 7 -13 0 -20z m-3120 -36 c3 -8 2 -12 -4
-9 -6 3 -10 10 -10 16 0 14 7 11 14 -7z m2 -54 c0 -12 -4 -16 -9 -11 -5 5 -6
14 -3 20 10 15 12 14 12 -9z m3124 -30 c0 -5 -2 -10 -4 -10 -3 0 -8 5 -11 10
-3 6 -1 10 4 10 6 0 11 -4 11 -10z m-3124 -30 c0 -12 -4 -16 -9 -11 -5 5 -6
14 -3 20 10 15 12 14 12 -9z m3124 -24 c0 -3 -4 -8 -10 -11 -5 -3 -10 -1 -10
4 0 6 5 11 10 11 6 0 10 -2 10 -4z m-3124 -36 c0 -12 -4 -16 -9 -11 -5 5 -6
14 -3 20 10 15 12 14 12 -9z m3124 -40 c0 -5 -2 -10 -4 -10 -3 0 -8 5 -11 10
-3 6 -1 10 4 10 6 0 11 -4 11 -10z m-3124 -20 c0 -12 -4 -16 -9 -11 -5 5 -6
14 -3 20 10 15 12 14 12 -9z m0 -60 c0 -11 -4 -20 -8 -20 -10 0 -11 24 -1 33
9 9 9 10 9 -13z m3122 -5 c-3 -3 -9 2 -12 12 -6 14 -5 15 5 6 7 -7 10 -15 7
-18z m2 -25 c0 -5 -2 -10 -4 -10 -3 0 -8 5 -11 10 -3 6 -1 10 4 10 6 0 11 -4
11 -10z m-3125 -40 c3 -5 1 -10 -4 -10 -6 0 -11 5 -11 10 0 6 2 10 4 10 3 0 8
-4 11 -10z m3125 -14 c0 -3 -4 -8 -10 -11 -5 -3 -10 -1 -10 4 0 6 5 11 10 11
6 0 10 -2 10 -4z m-3125 -26 c-1 -11 -4 -22 -7 -25 -4 -5 -4 34 1 43 4 8 7 -1
6 -18z m3119 -40 c-6 -6 -10 -3 -10 10 0 13 4 16 10 10 7 -7 7 -13 0 -20z
m-3120 -36 c3 -8 2 -12 -4 -9 -6 3 -10 10 -10 16 0 14 7 11 14 -7z m-1 -49
c-3 -9 -8 -14 -10 -11 -3 3 -2 9 2 15 9 16 15 13 8 -4z m3127 -35 c0 -5 -2
-10 -4 -10 -3 0 -8 5 -11 10 -3 6 -1 10 4 10 6 0 11 -4 11 -10z m-3120 -24 c0
-3 -4 -8 -10 -11 -5 -3 -10 -1 -10 4 0 6 5 11 10 11 6 0 10 -2 10 -4z m3120
-30 c0 -3 -4 -8 -10 -11 -5 -3 -10 -1 -10 4 0 6 5 11 10 11 6 0 10 -2 10 -4z
m-3125 -36 c3 -5 1 -10 -4 -10 -6 0 -11 5 -11 10 0 6 2 10 4 10 3 0 8 -4 11
-10z m3125 -40 c0 -5 -2 -10 -4 -10 -3 0 -8 5 -11 10 -3 6 -1 10 4 10 6 0 11
-4 11 -10z m-3125 -20 c3 -5 1 -10 -4 -10 -6 0 -11 5 -11 10 0 6 2 10 4 10 3
0 8 -4 11 -10z m3123 -65 c-3 -3 -9 2 -12 12 -6 14 -5 15 5 6 7 -7 10 -15 7
-18z m-3118 -5 c0 -5 -5 -10 -11 -10 -5 0 -7 5 -4 10 3 6 8 10 11 10 2 0 4 -4
4 -10z m3120 -20 c0 -5 -2 -10 -4 -10 -3 0 -8 5 -11 10 -3 6 -1 10 4 10 6 0
11 -4 11 -10z m-3125 -40 c3 -5 1 -10 -4 -10 -6 0 -11 5 -11 10 0 6 2 10 4 10
3 0 8 -4 11 -10z m3125 -14 c0 -3 -4 -8 -10 -11 -5 -3 -10 -1 -10 4 0 6 5 11
10 11 6 0 10 -2 10 -4z m-3125 -26 c-1 -11 -4 -22 -7 -25 -4 -5 -4 34 1 43 4
8 7 -1 6 -18z m3119 -40 c-6 -6 -10 -3 -10 10 0 13 4 16 10 10 7 -7 7 -13 0
-20z m-3120 -36 c3 -8 2 -12 -4 -9 -6 3 -10 10 -10 16 0 14 7 11 14 -7z m3120
-24 c-6 -6 -10 -3 -10 10 0 13 4 16 10 10 7 -7 7 -13 0 -20z m-3118 -30 c0
-12 -4 -16 -9 -11 -5 5 -6 14 -3 20 10 15 12 14 12 -9z m3124 -30 c0 -5 -2
-10 -4 -10 -3 0 -8 5 -11 10 -3 6 -1 10 4 10 6 0 11 -4 11 -10z m-3124 -30 c0
-12 -4 -16 -9 -11 -5 5 -6 14 -3 20 10 15 12 14 12 -9z m0 -60 c0 -12 -4 -16
-9 -11 -5 5 -6 14 -3 20 10 15 12 14 12 -9z m3124 10 c0 -5 -2 -10 -4 -10 -3
0 -8 5 -11 10 -3 6 -1 10 4 10 6 0 11 -4 11 -10z m-3124 -70 c0 -12 -4 -16 -9
-11 -5 5 -6 14 -3 20 10 15 12 14 12 -9z m3124 16 c0 -3 -4 -8 -10 -11 -5 -3
-10 -1 -10 4 0 6 5 11 10 11 6 0 10 -2 10 -4z m-6 -66 c-6 -6 -10 -3 -10 10 0
13 4 16 10 10 7 -7 7 -13 0 -20z m-3118 -10 c0 -11 -4 -20 -8 -20 -10 0 -11
24 -1 33 9 9 9 10 9 -13z m3118 -50 c-6 -6 -10 -3 -10 10 0 13 4 16 10 10 7
-7 7 -13 0 -20z m-3119 -20 c3 -5 1 -10 -4 -10 -6 0 -11 5 -11 10 0 6 2 10 4
10 3 0 8 -4 11 -10z m0 -40 c-1 -11 -4 -22 -7 -25 -4 -5 -4 34 1 43 4 8 7 -1
6 -18z m3125 0 c0 -5 -2 -10 -4 -10 -3 0 -8 5 -11 10 -3 6 -1 10 4 10 6 0 11
-4 11 -10z m0 -54 c0 -3 -4 -8 -10 -11 -5 -3 -10 -1 -10 4 0 6 5 11 10 11 6 0
10 -2 10 -4z m-3126 -22 c3 -8 2 -12 -4 -9 -6 3 -10 10 -10 16 0 14 7 11 14
-7z m-1 -49 c-3 -9 -8 -14 -10 -11 -3 3 -2 9 2 15 9 16 15 13 8 -4z m3127 -5
c0 -5 -2 -10 -4 -10 -3 0 -8 5 -11 10 -3 6 -1 10 4 10 6 0 11 -4 11 -10z
m-3120 -54 c0 -3 -4 -8 -10 -11 -5 -3 -10 -1 -10 4 0 6 5 11 10 11 6 0 10 -2
10 -4z m3118 -31 c-3 -3 -9 2 -12 12 -6 14 -5 15 5 6 7 -7 10 -15 7 -18z m2
-25 c0 -5 -2 -10 -4 -10 -3 0 -8 5 -11 10 -3 6 -1 10 4 10 6 0 11 -4 11 -10z
m-3125 -10 c3 -5 1 -10 -4 -10 -6 0 -11 5 -11 10 0 6 2 10 4 10 3 0 8 -4 11
-10z m3125 -44 c0 -3 -4 -8 -10 -11 -5 -3 -10 -1 -10 4 0 6 5 11 10 11 6 0 10
-2 10 -4z m-3125 -16 c3 -5 1 -10 -4 -10 -6 0 -11 5 -11 10 0 6 2 10 4 10 3 0
8 -4 11 -10z m3119 -50 c-6 -6 -10 -3 -10 10 0 13 4 16 10 10 7 -7 7 -13 0
-20z m-3114 -20 c0 -5 -5 -10 -11 -10 -5 0 -7 5 -4 10 3 6 8 10 11 10 2 0 4
-4 4 -10z m-5 -60 c3 -5 1 -10 -4 -10 -6 0 -11 5 -11 10 0 6 2 10 4 10 3 0 8
-4 11 -10z m0 -40 c-1 -11 -4 -22 -7 -25 -4 -5 -4 34 1 43 4 8 7 -1 6 -18z
m3125 0 c0 -5 -2 -10 -4 -10 -3 0 -8 5 -11 10 -3 6 -1 10 4 10 6 0 11 -4 11
-10z m0 -54 c0 -3 -4 -8 -10 -11 -5 -3 -10 -1 -10 4 0 6 5 11 10 11 6 0 10 -2
10 -4z m-3126 -22 c3 -8 2 -12 -4 -9 -6 3 -10 10 -10 16 0 14 7 11 14 -7z m2
-54 c0 -12 -4 -16 -9 -11 -5 5 -6 14 -3 20 10 15 12 14 12 -9z m3124 0 c0 -5
-2 -10 -4 -10 -3 0 -8 5 -11 10 -3 6 -1 10 4 10 6 0 11 -4 11 -10z m-3124 -60
c0 -12 -4 -16 -9 -11 -5 5 -6 14 -3 20 10 15 12 14 12 -9z m3122 -25 c-3 -3
-9 2 -12 12 -6 14 -5 15 5 6 7 -7 10 -15 7 -18z m-3122 -35 c0 -12 -4 -16 -9
-11 -5 5 -6 14 -3 20 10 15 12 14 12 -9z m3124 10 c0 -5 -2 -10 -4 -10 -3 0
-8 5 -11 10 -3 6 -1 10 4 10 6 0 11 -4 11 -10z m-3124 -70 c0 -12 -4 -16 -9
-11 -5 5 -6 14 -3 20 10 15 12 14 12 -9z m3124 16 c0 -3 -4 -8 -10 -11 -5 -3
-10 -1 -10 4 0 6 5 11 10 11 6 0 10 -2 10 -4z m-6 -66 c-6 -6 -10 -3 -10 10 0
13 4 16 10 10 7 -7 7 -13 0 -20z m-3118 -10 c0 -11 -4 -20 -8 -20 -10 0 -11
24 -1 33 9 9 9 10 9 -13z m3118 -50 c-6 -6 -10 -3 -10 10 0 13 4 16 10 10 7
-7 7 -13 0 -20z m-3119 -20 c3 -5 1 -10 -4 -10 -6 0 -11 5 -11 10 0 6 2 10 4
10 3 0 8 -4 11 -10z m0 -40 c-1 -11 -4 -22 -7 -25 -4 -5 -4 34 1 43 4 8 7 -1
6 -18z m3125 0 c0 -5 -2 -10 -4 -10 -3 0 -8 5 -11 10 -3 6 -1 10 4 10 6 0 11
-4 11 -10z m0 -54 c0 -3 -4 -8 -10 -11 -5 -3 -10 -1 -10 4 0 6 5 11 10 11 6 0
10 -2 10 -4z m-3126 -22 c3 -8 2 -12 -4 -9 -6 3 -10 10 -10 16 0 14 7 11 14
-7z m-1 -49 c-3 -9 -8 -14 -10 -11 -3 3 -2 9 2 15 9 16 15 13 8 -4z m3127 -5
c0 -5 -2 -10 -4 -10 -3 0 -8 5 -11 10 -3 6 -1 10 4 10 6 0 11 -4 11 -10z
m-3120 -54 c0 -3 -4 -8 -10 -11 -5 -3 -10 -1 -10 4 0 6 5 11 10 11 6 0 10 -2
10 -4z m3118 -31 c-3 -3 -9 2 -12 12 -6 14 -5 15 5 6 7 -7 10 -15 7 -18z m2
-25 c0 -5 -2 -10 -4 -10 -3 0 -8 5 -11 10 -3 6 -1 10 4 10 6 0 11 -4 11 -10z
m-3125 -10 c3 -5 1 -10 -4 -10 -6 0 -11 5 -11 10 0 6 2 10 4 10 3 0 8 -4 11
-10z m3125 -44 c0 -3 -4 -8 -10 -11 -5 -3 -10 -1 -10 4 0 6 5 11 10 11 6 0 10
-2 10 -4z m-3125 -16 c3 -5 1 -10 -4 -10 -6 0 -11 5 -11 10 0 6 2 10 4 10 3 0
8 -4 11 -10z m3119 -50 c-6 -6 -10 -3 -10 10 0 13 4 16 10 10 7 -7 7 -13 0
-20z m-3114 -20 c0 -5 -5 -10 -11 -10 -5 0 -7 5 -4 10 3 6 8 10 11 10 2 0 4
-4 4 -10z m-5 -60 c3 -5 1 -10 -4 -10 -6 0 -11 5 -11 10 0 6 2 10 4 10 3 0 8
-4 11 -10z m0 -40 c-1 -11 -4 -22 -7 -25 -4 -5 -4 34 1 43 4 8 7 -1 6 -18z
m3125 0 c0 -5 -2 -10 -4 -10 -3 0 -8 5 -11 10 -3 6 -1 10 4 10 6 0 11 -4 11
-10z m0 -54 c0 -3 -4 -8 -10 -11 -5 -3 -10 -1 -10 4 0 6 5 11 10 11 6 0 10 -2
10 -4z m-3126 -22 c3 -8 2 -12 -4 -9 -6 3 -10 10 -10 16 0 14 7 11 14 -7z m2
-54 c0 -12 -4 -16 -9 -11 -5 5 -6 14 -3 20 10 15 12 14 12 -9z m3124 0 c0 -5
-2 -10 -4 -10 -3 0 -8 5 -11 10 -3 6 -1 10 4 10 6 0 11 -4 11 -10z m-3124 -60
c0 -12 -4 -16 -9 -11 -5 5 -6 14 -3 20 10 15 12 14 12 -9z m3118 -30 c-6 -6
-10 -3 -10 10 0 13 4 16 10 10 7 -7 7 -13 0 -20z m-3118 -30 c0 -12 -4 -16 -9
-11 -5 5 -6 14 -3 20 10 15 12 14 12 -9z m3124 -40 c0 -5 -2 -10 -4 -10 -3 0
-8 5 -11 10 -3 6 -1 10 4 10 6 0 11 -4 11 -10z m-3124 -20 c0 -12 -4 -16 -9
-11 -5 5 -6 14 -3 20 10 15 12 14 12 -9z m-3 -55 c-7 -21 -12 -19 -10 4 0 11
5 18 9 15 4 -3 5 -11 1 -19z m3125 -10 c-3 -3 -9 2 -12 12 -6 14 -5 15 5 6 7
-7 10 -15 7 -18z m-3086 -49 c7 4 8 2 4 -5 -9 -13 -26 -5 -25 12 0 9 2 8 6 -1
2 -6 10 -9 15 -6z m3051 -7 c-8 -8 -13 -7 -18 2 -5 8 -4 10 3 5 7 -4 12 -2 12
5 0 7 3 9 7 6 4 -4 2 -12 -4 -18z m-3023 -9 c0 -5 -5 -10 -11 -10 -5 0 -7 5
-4 10 3 6 8 10 11 10 2 0 4 -4 4 -10z m235 0 c3 -5 1 -10 -4 -10 -6 0 -11 5
-11 10 0 6 2 10 4 10 3 0 8 -4 11 -10z m240 0 c3 -5 1 -10 -4 -10 -6 0 -11 5
-11 10 0 6 2 10 4 10 3 0 8 -4 11 -10z m160 0 c3 -5 1 -10 -4 -10 -6 0 -11 5
-11 10 0 6 2 10 4 10 3 0 8 -4 11 -10z m120 0 c3 -5 1 -10 -4 -10 -6 0 -11 5
-11 10 0 6 2 10 4 10 3 0 8 -4 11 -10z m80 0 c3 -5 1 -10 -4 -10 -6 0 -11 5
-11 10 0 6 2 10 4 10 3 0 8 -4 11 -10z m65 5 c0 -7 -30 -13 -34 -7 -3 4 4 9
15 9 10 1 19 0 19 -2z m135 -5 c3 -5 1 -10 -4 -10 -6 0 -11 5 -11 10 0 6 2 10
4 10 3 0 8 -4 11 -10z m200 0 c3 -5 1 -10 -4 -10 -6 0 -11 5 -11 10 0 6 2 10
4 10 3 0 8 -4 11 -10z m80 0 c3 -5 1 -10 -4 -10 -6 0 -11 5 -11 10 0 6 2 10 4
10 3 0 8 -4 11 -10z m120 0 c3 -5 1 -10 -4 -10 -6 0 -11 5 -11 10 0 6 2 10 4
10 3 0 8 -4 11 -10z m160 0 c3 -5 1 -10 -4 -10 -6 0 -11 5 -11 10 0 6 2 10 4
10 3 0 8 -4 11 -10z m240 0 c3 -5 1 -10 -4 -10 -6 0 -11 5 -11 10 0 6 2 10 4
10 3 0 8 -4 11 -10z m320 0 c3 -5 1 -10 -4 -10 -6 0 -11 5 -11 10 0 6 2 10 4
10 3 0 8 -4 11 -10z m70 0 c3 -6 -1 -7 -9 -4 -18 7 -21 14 -7 14 6 0 13 -4 16
-10z m250 0 c3 -5 1 -10 -4 -10 -6 0 -11 5 -11 10 0 6 2 10 4 10 3 0 8 -4 11
-10z m320 0 c3 -5 1 -10 -4 -10 -6 0 -11 5 -11 10 0 6 2 10 4 10 3 0 8 -4 11
-10z m70 0 c3 -6 -1 -7 -9 -4 -18 7 -21 14 -7 14 6 0 13 -4 16 -10z m130 0 c3
-5 1 -10 -4 -10 -6 0 -11 5 -11 10 0 6 2 10 4 10 3 0 8 -4 11 -10z"/>
</g>
</svg>
